<?xml version="1.0" standalone="no"?>
<!DOCTYPE svg PUBLIC "-//W3C//DTD SVG 20010904//EN"
 "http://www.w3.org/TR/2001/REC-SVG-20010904/DTD/svg10.dtd">
<svg version="1.0" xmlns="http://www.w3.org/2000/svg"
 width="240.000000pt" height="240.000000pt" viewBox="0 0 240.000000 240.000000"
 preserveAspectRatio="xMidYMid meet">
<metadata>
Created by potrace 1.14, written by Peter Selinger 2001-2017
</metadata>
<g transform="translate(0.000000,240.000000) scale(0.100000,-0.100000)"
fill="#000000" stroke="none">
<path d="M1035 2239 c-350 -42 -590 -232 -668 -529 -8 -35 -26 -68 -46 -90
-123 -133 -154 -409 -75 -662 l25 -77 39 43 c28 31 40 52 40 74 0 45 26 169
49 236 124 352 475 586 849 563 125 -8 205 -28 319 -83 262 -125 437 -368 475
-658 11 -84 14 -94 49 -133 l38 -42 25 78 c119 378 -16 821 -326 1066 -226
178 -491 250 -793 214z"/>
<path d="M766 984 c-9 -8 -16 -24 -16 -34 0 -10 7 -26 16 -34 8 -9 24 -16 34
-16 10 0 26 7 34 16 9 8 16 24 16 34 0 10 -7 26 -16 34 -8 9 -24 16 -34 16
-10 0 -26 -7 -34 -16z"/>
<path d="M1566 984 c-31 -30 -9 -84 34 -84 24 0 50 26 50 50 0 24 -26 50 -50
50 -10 0 -26 -7 -34 -16z"/>
<path d="M1126 486 c-110 -41 -163 -145 -91 -178 21 -9 33 -7 78 15 66 34 111
34 172 1 54 -28 88 -26 106 7 13 26 6 57 -22 93 -48 60 -166 91 -243 62z"/>
</g>
</svg>
